<svg width="45" height="45" viewBox="0 0 45 45" fill="none" xmlns="http://www.w3.org/2000/svg">
<path d="M32.8706 0H11.4023C5.1312 0 0 5.13121 0 11.4023V32.8706C0 39.1417 5.1312 44.2729 11.4023 44.2729H32.8706C39.1417 44.2729 44.2729 39.1417 44.2729 32.8706V11.4023C44.2729 5.13121 39.1417 0 32.8706 0ZM40.2892 31.929C40.2892 36.5284 36.5265 40.291 31.9271 40.291H12.3439C7.74447 40.291 3.98184 36.5284 3.98184 31.929V12.3458C3.98184 7.74637 7.74447 3.98374 12.3439 3.98374H31.9271C36.5265 3.98374 40.2892 7.74637 40.2892 12.3458V31.929Z" fill="white"/>
<path d="M22.135 10.748C15.8449 10.748 10.7461 15.8469 10.7461 22.137C10.7461 28.4271 15.8449 33.5259 22.135 33.5259C28.4251 33.5259 33.5239 28.4271 33.5239 22.137C33.5239 15.8469 28.4251 10.748 22.135 10.748ZM22.135 29.4716C18.0846 29.4716 14.8003 26.1874 14.8003 22.137C14.8003 18.0865 18.0846 14.8023 22.135 14.8023C26.1855 14.8023 29.4697 18.0865 29.4697 22.137C29.4697 26.1874 26.1855 29.4716 22.135 29.4716Z" fill="white"/>
<path d="M34.1341 12.9713C35.7226 12.9713 37.0104 11.6836 37.0104 10.095C37.0104 8.50651 35.7226 7.21875 34.1341 7.21875C32.5456 7.21875 31.2578 8.50651 31.2578 10.095C31.2578 11.6836 32.5456 12.9713 34.1341 12.9713Z" fill="white"/>
</svg>
