<svg width="36" height="36" viewBox="0 0 36 36" fill="none" xmlns="http://www.w3.org/2000/svg">
<path d="M21.4299 19.0971C22.0449 20.3382 22.2693 21.2402 23.6884 20.9224C26.2307 20.3533 27.2496 20.0393 28.2175 21.0015C29.2218 21.9989 29.1211 26.2185 28.2175 27.3515C27.0992 28.7522 23.105 27.8138 22.023 29.2572C21.3656 30.1315 21.2274 33.3411 22.023 34.0194C24.4392 36.077 31.8733 34.6864 33.6393 31.7972C35.4345 28.8602 35.0463 16.5583 34.7346 10.8439C34.6485 9.25988 34.3428 5.50763 33.6393 4.17733C32.5125 2.04557 30.1255 0.935098 27.8318 1.00293C25.1088 1.08207 22.7011 0.824553 21.6968 2.386C19.2442 6.19603 19.8179 15.8448 21.4311 19.0996L21.4299 19.0971Z" stroke="black" stroke-width="2" stroke-miterlimit="10"/>
<path d="M2.39281 19.0971C3.00777 20.3382 3.23216 21.2402 4.65129 20.9224C7.19361 20.3533 8.21247 20.0393 9.1804 21.0015C10.1847 21.9989 10.084 26.2185 9.1804 27.3515C8.06207 28.7522 4.06787 27.8138 2.98593 29.2572C2.32852 30.1315 2.19025 33.3411 2.98593 34.0194C5.4021 36.077 12.8362 34.6864 14.6022 31.7972C16.3974 28.8602 16.0092 16.5583 15.6975 10.8439C15.6114 9.25988 15.3057 5.50763 14.6022 4.17733C13.4754 2.04557 11.0883 0.935098 8.79468 1.00293C6.07164 1.08207 3.66396 0.824553 2.65965 2.386C0.207096 6.19603 0.780815 15.8448 2.39402 19.0996L2.39281 19.0971Z" stroke="black" stroke-width="2" stroke-miterlimit="10"/>
</svg>
