<svg width="45" height="45" viewBox="0 0 45 45" fill="none" xmlns="http://www.w3.org/2000/svg">
<path d="M22.0324 0C9.86379 0 0 9.86379 0 22.0324C0 34.2011 9.86379 44.0649 22.0324 44.0649C34.2011 44.0649 44.0649 34.2011 44.0649 22.0324C44.0649 9.86379 34.2011 0 22.0324 0ZM30.8344 13.9774C30.8344 13.9774 29.0367 27.1492 28.1744 31.466C28.0078 32.0573 27.7387 32.4015 27.2975 32.6596C26.9424 32.7951 26.4371 32.601 26.1753 32.4436C26.1753 32.4436 20.123 28.5662 18.2374 27.0943C17.7944 26.8142 17.6095 26.0819 17.9793 25.714C19.7477 24.0315 24.5808 19.2846 24.5808 19.2846C24.6943 19.1656 25.3899 18.4241 25.3863 18.0909C25.4229 17.7193 25.2801 17.5417 24.9268 17.6827C22.4553 18.9697 15.7348 23.7862 15.5591 23.8466C15.2497 24.0096 13.9371 25.2069 13.1975 25.141C11.6066 24.729 9.375 23.713 7.75666 23.0375C7.38503 22.8507 7.34292 22.4864 7.48389 22.2173C7.53698 22.1313 7.75666 22.0013 7.75666 22.0013L28.3795 13.1133C28.9323 12.976 30.3493 12.5659 30.8381 13.2433C30.9278 13.4025 30.8381 13.9774 30.8381 13.9774H30.8344Z" fill="white"/>
</svg>
