<svg width="45" height="45" viewBox="0 0 45 45" fill="none" xmlns="http://www.w3.org/2000/svg">
<path d="M33.3004 0H11.5513C5.19829 0 0 5.1983 0 11.5513V33.3004C0 39.6534 5.19829 44.8517 11.5513 44.8517H33.3004C39.6534 44.8517 44.8517 39.6534 44.8517 33.3004V11.5513C44.8517 5.1983 39.6534 0 33.3004 0ZM37.2146 32.1978H31.773C31.9873 28.747 27.9244 25.7424 25.0974 25.6941C24.8599 25.6806 24.5973 25.6555 24.325 25.6169V32.1978H19.3797V31.5316C17.97 31.3153 16.7226 30.9503 15.6856 30.3768C12.6037 28.6737 10.86 26.312 10.0876 25.0974C8.32847 22.3341 7.95772 20.2293 7.72793 18.8236C7.58311 17.943 7.41703 16.6705 7.40351 16.1279C7.37648 15.1083 7.40351 14.0868 7.40351 13.0672H12.3488C12.3488 13.0672 12.2697 15.0832 12.3488 15.7474C12.4821 16.8674 13.3279 20.2699 13.9979 21.3879C14.6178 22.423 15.4636 23.5603 15.6972 23.794C16.2939 24.3907 17.1088 25.2674 19.3835 26.1344V13.0672H24.3289V20.3317C24.7981 20.3008 25.3369 20.3915 26.1884 20.0362C28.6563 18.8892 29.6701 17.1185 30.653 14.9943C30.8248 14.5483 31.1434 13.3433 31.1569 13.0672H36.4402C36.5966 14.2664 36.1081 15.5543 35.5133 16.657C34.0284 19.5612 32.5203 20.5499 32.5203 20.5499C29.5851 22.8574 29.4557 22.5157 32.696 24.3907C33.984 25.2847 36.4209 27.4977 36.8979 29.7261C37.1296 30.7669 37.3362 31.661 37.2223 32.1978H37.2146Z" fill="white"/>
</svg>
