<svg width="45" height="45" viewBox="0 0 45 45" fill="none" xmlns="http://www.w3.org/2000/svg">
<path d="M22.1364 0C9.90979 0 0 9.92881 0 22.1747C0 25.8416 0.893285 29.2971 2.46699 32.3434L2.19521 33.7142L0 44.7967L11.6793 41.7201C14.7944 43.3955 18.3542 44.3474 22.1364 44.3474C34.3631 44.3474 44.2729 34.4186 44.2729 22.1728C44.2729 9.92691 34.3631 0 22.1364 0ZM22.2657 40.195C18.6678 40.195 15.3151 39.1479 12.4889 37.3468L5.06323 39.3802L6.72057 31.4904C5.00621 28.705 4.01599 25.4265 4.01599 21.9138C4.01599 11.8175 12.1867 3.63263 22.2657 3.63263C32.3446 3.63263 40.5154 11.8175 40.5154 21.9138C40.5154 32.0102 32.3446 40.195 22.2657 40.195Z" fill="white"/>
<path d="M17.5898 18.7726C18.1448 18.2871 18.2227 18.2357 18.3843 17.8454C18.5762 17.3847 18.5116 16.4936 17.9946 15.4141C17.3427 14.0319 16.2062 12.1223 14.8149 11.9985C13.838 11.8443 12.9713 12.7715 12.5038 13.2722C11.1068 14.7668 10.9662 16.6231 10.9434 17.0934C10.9871 20.1796 12.3688 22.0511 14.2371 24.3301C15.9534 26.4072 17.548 27.778 18.2835 28.3835C19.8173 29.6457 20.8741 30.5158 22.5599 31.2793C23.7269 31.8067 25.8993 33.0423 28.4841 32.7853C29.8564 32.7148 33.6291 30.7462 33.3098 28.4425C33.1862 27.4029 29.7157 24.7584 28.6856 24.9679C28.4993 24.9545 27.4407 24.8822 26.6633 25.5466C26.1084 26.0207 25.7529 26.8204 25.6237 27.1097C25.3614 27.6961 25.3994 27.9722 25.1618 28.0369C24.6278 28.1816 23.0674 27.2259 22.5029 26.8356C21.1725 25.9141 19.5588 24.57 17.8217 22.9992C16.782 22.0587 16.782 21.0154 16.6946 20.6251C16.4057 19.3266 17.4264 18.9154 17.5898 18.7726Z" fill="white"/>
</svg>
