<svg width="325" height="55" viewBox="0 0 325 55" fill="none" xmlns="http://www.w3.org/2000/svg">
<path d="M34.6217 16.7073L31.8294 18.7887C30.2918 16.8444 28.4361 15.3712 26.28 14.369C24.1239 13.3669 21.7468 12.8616 19.1666 12.8616C16.3389 12.8616 13.7232 13.5211 11.3197 14.8316C8.91612 16.1506 7.04276 17.915 5.71727 20.1334C4.39178 22.3518 3.72904 24.8443 3.72904 27.6109C3.72904 31.7993 5.21359 35.2853 8.17384 38.0862C11.1341 40.887 14.872 42.2831 19.3786 42.2831C24.336 42.2831 28.4892 40.3988 31.8294 36.6386L34.6217 38.6943C32.8544 40.8699 30.6541 42.5572 28.012 43.7478C25.3698 44.9384 22.4184 45.5294 19.1666 45.5294C12.9721 45.5294 8.08548 43.5336 4.50666 39.5337C1.50222 36.159 0 32.0819 0 27.3025C0 22.2747 1.82034 18.0521 5.45217 14.6174C9.08401 11.1828 13.6437 9.46973 19.1135 9.46973C22.4184 9.46973 25.4052 10.1036 28.0738 11.3712C30.7425 12.6389 32.9251 14.4204 34.6217 16.7073Z" fill="white"/>
<path d="M40.4961 10.334H44.0396V41.3487H57.6656V44.6634H40.4961V10.334Z" fill="white"/>
<path d="M76.5068 10.334L93.0224 44.6634H89.1961L83.6291 33.3659H68.3683L62.8542 44.6634H58.9043L75.6408 10.334H76.5068ZM76.0561 17.6316L69.9854 30.0597H82.0915L76.0561 17.6316Z" fill="white"/>
<path d="M94.4902 10.334H98.5639L107.63 24.4923L116.546 10.334H120.638L109.415 28.261V44.672H105.925V28.261L94.4902 10.334Z" fill="white"/>
<path d="M150.045 34.2778C150.884 34.0294 152.245 33.5412 152.66 32.8731L145.344 26.4492C138.911 29.9524 144.31 35.9652 150.036 34.2778H150.045Z" fill="white"/>
<path d="M171.545 17.6272C170.82 15.5802 169.724 13.9099 169.724 13.9099C169.15 13.0277 168.266 11.683 166.693 10.3896C164.882 8.89071 163.662 8.71941 163.265 7.45175C163.168 7.15197 163.141 6.85219 163.159 6.5781L163.274 6.09844C165.112 5.47318 166.19 4.70231 166.19 3.87148C166.19 1.73018 158.997 0 150.134 0C141.271 0 134.078 1.73018 134.078 3.87148C134.078 4.83079 135.536 5.71301 137.93 6.38966L137.948 6.47532C137.957 6.75797 137.93 7.04918 137.842 7.34897C137.444 8.61662 136.225 8.78793 134.413 10.2868C132.84 11.5802 131.957 12.9335 131.382 13.8072C131.382 13.8072 130.287 15.4774 129.562 17.5245C127.132 24.3938 130.242 33.5843 130.366 33.9611C131.427 37.0018 132.69 39.1688 133.998 41.3958C136.534 45.7298 138.92 48.4278 139.45 49.0274C142.322 52.2479 143.329 53.0273 143.895 53.3357C146.519 54.7747 149.383 54.9545 149.877 54.9802C150.478 55.0145 150.982 54.9973 151.335 54.9802C152.749 54.946 154.985 54.6976 157.212 53.4385C157.963 53.0102 158.926 52.188 161.657 49.1302C162.187 48.5306 164.564 45.8326 167.109 41.4985C168.417 39.2716 169.68 37.1046 170.741 34.0639C170.873 33.687 173.975 24.5051 171.545 17.6272ZM164.069 37.7984C163.892 38.0296 158.599 38.0125 158.157 37.7812C157.574 37.4814 156.505 36.3594 155.754 35.52C148.517 41.3358 134.758 37.156 139 27.3659C140.122 25.1903 141.544 24.4195 142.799 23.4859C135.783 15.3917 149.011 6.90358 155.524 14.6551C156.452 15.76 157.353 18.5352 157.061 18.8692C156.814 19.1519 152.749 19.2889 152.687 18.9377C151.795 13.8072 145.229 14.6979 145.521 19.4174C145.715 22.5523 148.455 24.1026 152.422 27.5972C152.882 27.9997 155.17 30.0811 155.577 29.8584C156.788 28.231 158.679 24.9591 159.076 24.7535C159.668 24.4537 163.265 24.4366 163.318 24.8906C163.371 25.336 158.352 32.6507 158.352 32.6507C160.278 34.3466 164.307 37.5071 164.087 37.7984H164.069Z" fill="white"/>
<path d="M180.481 10.335H198.225V13.6925H184.016V24.4505H198.225V27.808H184.016V44.6558H180.473V10.335H180.481Z" fill="white"/>
<path d="M203.168 10.335H206.711V41.3497H220.337V44.6644H203.168V10.335Z" fill="white"/>
<path d="M239.177 10.335L255.692 44.6644H251.866L246.299 33.3669H231.038L225.524 44.6644H221.574L238.311 10.335H239.177ZM238.726 17.6325L232.655 30.0607H244.761L238.726 17.6325Z" fill="white"/>
<path d="M258.344 44.6644L263.416 10.335H263.99L278.385 38.506L292.647 10.335H293.213L298.312 44.6644H294.839L291.34 20.1165L278.818 44.6644H277.917L265.245 19.928L261.764 44.6644H258.344Z" fill="white"/>
<path d="M304.064 10.335H324.362V13.6925H307.608V24.4505H324.221V27.808H307.608V41.2983H324.221V44.6558H304.064V10.335Z" fill="white"/>
</svg>
